<svg width="820" height="779" xmlns="http://www.w3.org/2000/svg" preserveAspectRatio="xMidYMid meet">

 <g>
  <title>background</title>
  <rect fill="none" id="canvas_background" height="402" width="582" y="-1" x="-1"/>
 </g>
 <g>
  <title>Layer 1</title>
  <g id="svg_1" fill="#000000" transform="translate(0,779) scale(0.10000000149011612,-0.10000000149011612) ">
   <path id="svg_2" fill="#000000" d="m4130,7779c-1138,-44 -2211,-605 -2897,-1514c-75,-99 -187,-267 -242,-362c-23,-40 -45,-73 -49,-73c-4,0 -217,210 -474,467l-468,468l0,-1333l0,-1332l1332,0l1333,0l-574,574l-574,574l48,88c63,115 209,332 309,459c125,158 398,424 563,547c503,375 1056,579 1681,618c1075,68 2112,-447 2733,-1357c511,-750 660,-1683 407,-2553c-209,-717 -690,-1352 -1330,-1756c-142,-89 -437,-234 -590,-288c-397,-142 -811,-202 -1215,-177c-720,47 -1351,313 -1889,799c-331,299 -634,732 -800,1144l-39,98l-427,0c-386,0 -428,-2 -428,-16c0,-9 25,-90 56,-181c199,-591 524,-1107 975,-1548c645,-630 1464,-1014 2348,-1101c182,-17 552,-20 726,-4c785,70 1492,356 2115,854c150,121 413,380 536,529c198,240 343,463 485,742c214,424 341,850 396,1335c24,203 23,632 -1,835c-83,712 -349,1369 -781,1930c-122,158 -171,213 -333,379c-650,661 -1520,1071 -2427,1145c-178,15 -310,17 -505,10z"/>
   <path id="svg_3" fill="#000000" d="m3692,4694l3,-1047l460,-274c1235,-735 1455,-864 1463,-859c5,3 26,33 47,68c21,35 92,150 158,256c66,107 116,197 111,201c-5,5 -371,225 -814,490c-442,265 -808,488 -812,494c-4,7 -8,396 -8,865l0,852l-305,0l-305,0l2,-1046z"/>
  </g>
 </g>
</svg>