<svg xmlns="http://www.w3.org/2000/svg" version="1.0" width="820.000000pt" height="779.000000pt" viewBox="0 0 820.000000 779.000000" preserveAspectRatio="xMidYMid meet">
<g transform="translate(0.000000,779.000000) scale(0.100000,-0.100000)" fill="#000000" stroke="none">
<path d="M4130 7779 c-1138 -44 -2211 -605 -2897 -1514 -75 -99 -187 -267 -242 -362 -23 -40 -45 -73 -49 -73 -4 0 -217 210 -474 467 l-468 468 0 -1333 0 -1332 1332 0 1333 0 -574 574 -574 574 48 88 c63 115 209 332 309 459 125 158 398 424 563 547 503 375 1056 579 1681 618 1075 68 2112 -447 2733 -1357 511 -750 660 -1683 407 -2553 -209 -717 -690 -1352 -1330 -1756 -142 -89 -437 -234 -590 -288 -397 -142 -811 -202 -1215 -177 -720 47 -1351 313 -1889 799 -331 299 -634 732 -800 1144 l-39 98 -427 0 c-386 0 -428 -2 -428 -16 0 -9 25 -90 56 -181 199 -591 524 -1107 975 -1548 645 -630 1464 -1014 2348 -1101 182 -17 552 -20 726 -4 785 70 1492 356 2115 854 150 121 413 380 536 529 198 240 343 463 485 742 214 424 341 850 396 1335 24 203 23 632 -1 835 -83 712 -349 1369 -781 1930 -122 158 -171 213 -333 379 -650 661 -1520 1071 -2427 1145 -178 15 -310 17 -505 10z" fill="#94C571"/>
<path d="M3692 4694 l3 -1047 460 -274 c1235 -735 1455 -864 1463 -859 5 3 26 33 47 68 21 35 92 150 158 256 66 107 116 197 111 201 -5 5 -371 225 -814 490 -442 265 -808 488 -812 494 -4 7 -8 396 -8 865 l0 852 -305 0 -305 0 2 -1046z" fill="#94C571"/>
</g>
</svg>