<svg width="500" height="500" xmlns="http://www.w3.org/2000/svg" preserveAspectRatio="xMidYMid meet">

 <g>
  <title>background</title>
  <rect fill="none" id="canvas_background" height="402" width="582" y="-1" x="-1"/>
 </g>
 <g>
  <title>Layer 1</title>
  <g id="svg_1" fill="#000000" transform="translate(0,500) scale(0.10000000149011612,-0.10000000149011612) ">
   <path id="svg_2" fill="#000000" d="m3169,3084l-926,-926l-87,85l-86,85l39,58c56,86 74,148 70,247c-7,145 -22,167 -367,510c-297,296 -340,337 -351,337c-3,0 -45,-40 -92,-89l-86,-90l254,-253c140,-139 259,-263 264,-276c16,-42 -22,-92 -69,-92c-9,0 -111,93 -227,206c-115,114 -235,231 -266,261l-56,53l-92,-92l-91,-93l265,-261c175,-172 265,-268 265,-281c0,-35 -38,-73 -72,-73c-26,0 -65,34 -290,258c-143,141 -260,258 -262,259c-1,1 -44,-39 -94,-90l-93,-93l302,-300c356,-354 312,-312 376,-352c131,-80 294,-75 422,13c27,19 54,36 59,37c11,3 172,-147 172,-159c0,-5 -33,-41 -73,-81l-73,-73l89,-89c49,-50 92,-90 96,-90c3,0 38,32 76,70c38,39 73,70 78,70c5,0 145,-135 311,-299c298,-297 365,-361 372,-361c8,0 174,169 174,178c0,5 -140,148 -312,318c-171,170 -322,320 -335,333l-24,25l318,318l318,318l90,-90c50,-50 93,-90 96,-90c7,0 131,119 332,318c264,260 419,487 503,734c39,113 48,154 64,283c14,111 5,175 -29,215l-26,31l-926,-927z"/>
  </g>
 </g>
</svg>