<svg xmlns="http://www.w3.org/2000/svg" version="1.0" width="840.000000pt" height="880.000000pt" viewBox="0 0 840.000000 880.000000" preserveAspectRatio="xMidYMid meet">
<g transform="translate(0.000000,880.000000) scale(0.100000,-0.100000)" fill="#000000" stroke="none">
<path d="M715 8379 c-186 -42 -361 -182 -445 -353 -76 -155 -70 156 -70 -3626 0 -3792 -6 -3468 72 -3629 56 -117 168 -230 285 -288 159 -80 -43 -74 2488 -71 l2260 3 58 22 c116 44 181 86 263 168 63 63 90 100 123 166 70 142 72 164 69 728 -3 493 -3 496 -26 554 -95 233 -378 331 -595 204 -99 -58 -178 -176 -197 -294 -6 -32 -10 -210 -10 -395 l0 -338 -1980 0 -1980 0 2 3167 3 3168 1978 3 1977 2 0 -402 c0 -222 4 -429 10 -461 21 -132 109 -251 229 -310 62 -30 72 -32 176 -32 108 0 113 1 187 38 112 55 182 141 214 262 11 39 14 173 14 601 0 620 -1 631 -77 777 -52 102 -182 230 -283 279 -148 73 43 68 -2455 67 -1315 -1 -2267 -5 -2290 -10z" fill="#94C571"/>
<path d="M6320 6152 c-193 -64 -315 -260 -283 -455 23 -133 36 -150 412 -529 l345 -348 -1600 0 c-1748 0 -1661 3 -1763 -57 -104 -60 -181 -175 -200 -294 -27 -164 55 -337 200 -422 102 -60 15 -57 1763 -57 l1600 0 -335 -337 c-365 -367 -375 -380 -400 -514 -23 -126 21 -260 116 -355 130 -131 316 -159 485 -75 32 16 248 226 748 724 638 637 706 708 737 769 58 116 69 231 32 336 -39 112 -67 142 -785 859 -803 802 -756 763 -925 770 -70 2 -105 -1 -147 -15z" fill="#94C571"/>
</g>
</svg>