<svg width="840" height="880" xmlns="http://www.w3.org/2000/svg" preserveAspectRatio="xMidYMid meet">

 <g>
  <title>background</title>
  <rect fill="none" id="canvas_background" height="402" width="582" y="-1" x="-1"/>
 </g>
 <g>
  <title>Layer 1</title>
  <g id="svg_1" fill="#000000" transform="translate(0,880) scale(0.10000000149011612,-0.10000000149011612) ">
   <path id="svg_2" fill="#000000" d="m715,8379c-186,-42 -361,-182 -445,-353c-76,-155 -70,156 -70,-3626c0,-3792 -6,-3468 72,-3629c56,-117 168,-230 285,-288c159,-80 -43,-74 2488,-71l2260,3l58,22c116,44 181,86 263,168c63,63 90,100 123,166c70,142 72,164 69,728c-3,493 -3,496 -26,554c-95,233 -378,331 -595,204c-99,-58 -178,-176 -197,-294c-6,-32 -10,-210 -10,-395l0,-338l-1980,0l-1980,0l2,3167l3,3168l1978,3l1977,2l0,-402c0,-222 4,-429 10,-461c21,-132 109,-251 229,-310c62,-30 72,-32 176,-32c108,0 113,1 187,38c112,55 182,141 214,262c11,39 14,173 14,601c0,620 -1,631 -77,777c-52,102 -182,230 -283,279c-148,73 43,68 -2455,67c-1315,-1 -2267,-5 -2290,-10z"/>
   <path id="svg_3" fill="#000000" d="m6320,6152c-193,-64 -315,-260 -283,-455c23,-133 36,-150 412,-529l345,-348l-1600,0c-1748,0 -1661,3 -1763,-57c-104,-60 -181,-175 -200,-294c-27,-164 55,-337 200,-422c102,-60 15,-57 1763,-57l1600,0l-335,-337c-365,-367 -375,-380 -400,-514c-23,-126 21,-260 116,-355c130,-131 316,-159 485,-75c32,16 248,226 748,724c638,637 706,708 737,769c58,116 69,231 32,336c-39,112 -67,142 -785,859c-803,802 -756,763 -925,770c-70,2 -105,-1 -147,-15z"/>
  </g>
 </g>
</svg>