<svg xmlns="http://www.w3.org/2000/svg" version="1.0" width="500.000000pt" height="500.000000pt" viewBox="0 0 500.000000 500.000000" preserveAspectRatio="xMidYMid meet">
<g transform="translate(0.000000,500.000000) scale(0.100000,-0.100000)" fill="#000000" stroke="none">
<path d="M3169 3084 l-926 -926 -87 85 -86 85 39 58 c56 86 74 148 70 247 -7 145 -22 167 -367 510 -297 296 -340 337 -351 337 -3 0 -45 -40 -92 -89 l-86 -90 254 -253 c140 -139 259 -263 264 -276 16 -42 -22 -92 -69 -92 -9 0 -111 93 -227 206 -115 114 -235 231 -266 261 l-56 53 -92 -92 -91 -93 265 -261 c175 -172 265 -268 265 -281 0 -35 -38 -73 -72 -73 -26 0 -65 34 -290 258 -143 141 -260 258 -262 259 -1 1 -44 -39 -94 -90 l-93 -93 302 -300 c356 -354 312 -312 376 -352 131 -80 294 -75 422 13 27 19 54 36 59 37 11 3 172 -147 172 -159 0 -5 -33 -41 -73 -81 l-73 -73 89 -89 c49 -50 92 -90 96 -90 3 0 38 32 76 70 38 39 73 70 78 70 5 0 145 -135 311 -299 298 -297 365 -361 372 -361 8 0 174 169 174 178 0 5 -140 148 -312 318 -171 170 -322 320 -335 333 l-24 25 318 318 318 318 90 -90 c50 -50 93 -90 96 -90 7 0 131 119 332 318 264 260 419 487 503 734 39 113 48 154 64 283 14 111 5 175 -29 215 l-26 31 -926 -927z" fill="#94C571"/>
</g>
</svg>

